<svg width="222" height="223" viewBox="0 0 222 223" fill="none" xmlns="http://www.w3.org/2000/svg">
<path d="M111 0.479858L120.901 10.9563L132.655 2.61269L140.322 14.8193L153.478 8.92923L158.616 22.397L172.668 19.1867L175.08 33.3981L189.489 32.991L189.082 47.3998L203.293 49.8116L200.083 63.8641L213.551 69.002L207.661 82.1582L219.867 89.8248L211.524 101.579L222 111.48L211.524 121.381L219.867 133.135L207.661 140.802L213.551 153.958L200.083 159.096L203.293 173.148L189.082 175.56L189.489 189.969L175.08 189.562L172.668 203.773L158.616 200.563L153.478 214.03L140.322 208.14L132.655 220.347L120.901 212.003L111 222.48L101.099 212.003L89.345 220.347L81.6783 208.14L68.5221 214.03L63.3842 200.563L49.3317 203.773L46.9199 189.562L32.5111 189.969L32.9182 175.56L18.7069 173.148L21.9171 159.096L8.44937 153.958L14.3395 140.802L2.13284 133.135L10.4764 121.381L0 111.48L10.4764 101.579L2.13284 89.8248L14.3395 82.1582L8.44937 69.002L21.9171 63.8641L18.7069 49.8116L32.9182 47.3998L32.5111 32.991L46.9199 33.3981L49.3317 19.1867L63.3842 22.397L68.5221 8.92923L81.6783 14.8193L89.345 2.61269L101.099 10.9563L111 0.479858Z" fill="#FF00C7"/>
<text transform="translate(33 107)" fill="white" xml:space="preserve" style="white-space: pre" font-family="Bebas Neue" font-size="92" letter-spacing="0em"><tspan x="0.0546875" y="27.6">FREE!</tspan></text>
<text transform="translate(34 149)" fill="white" xml:space="preserve" style="white-space: pre" font-family="Inter" font-size="13" font-weight="bold" letter-spacing="0em"><tspan x="0.225098" y="4.72727">NO ADS &#x2022; NO TRACKING</tspan></text>
</svg>
